<svg width="40" height="27" viewBox="0 0 40 27" fill="none" xmlns="http://www.w3.org/2000/svg">
<path d="M27.7778 13.5C27.7778 17.8523 24.2986 21.375 20 21.375C15.7014 21.375 12.2222 17.8523 12.2222 13.5C12.2222 9.14766 15.7014 5.625 20 5.625C24.2986 5.625 27.7778 9.14766 27.7778 13.5ZM18.8889 11.25V15.75H18.3333C17.7222 15.75 17.2222 16.2563 17.2222 16.875C17.2222 17.4937 17.7222 18 18.3333 18H21.6667C22.2778 18 22.7778 17.4937 22.7778 16.875C22.7778 16.2563 22.2778 15.75 21.6667 15.75H21.1111V10.125C21.1111 9.50625 20.6111 9 20 9H18.8889C18.2778 9 17.7778 9.50625 17.7778 10.125C17.7778 10.7437 18.2778 11.25 18.8889 11.25ZM0 4.5C0 2.01445 1.98958 0 4.44444 0H35.5556C38.0069 0 40 2.01445 40 4.5V22.5C40 24.982 38.0069 27 35.5556 27H4.44444C1.98958 27 0 24.982 0 22.5V4.5ZM3.33333 7.875V19.125C5.78819 19.125 7.77778 21.143 7.77778 23.625H32.2222C32.2222 21.143 34.2153 19.125 36.6667 19.125V7.875C34.2153 7.875 32.2222 5.85703 32.2222 3.375H7.77778C7.77778 5.85703 5.78819 7.875 3.33333 7.875Z" fill="#E16428"/>
</svg>
