<svg width="19" height="18" viewBox="0 0 19 18" fill="none" xmlns="http://www.w3.org/2000/svg">
<path d="M8.38 17.41C9.16 18.19 10.43 18.19 11.21 17.41L17.42 11.2C18.2 10.42 18.2 9.15 17.42 8.37L9.63 0.58C9.25014 0.209302 8.74076 0.00124533 8.21 0L2 0C0.9 0 0 0.9 0 2V8.21C0 8.74 0.21 9.25 0.59 9.62L8.38 17.41V17.41ZM4.25 3C4.58152 3 4.89946 3.1317 5.13388 3.36612C5.3683 3.60054 5.5 3.91848 5.5 4.25C5.5 4.58152 5.3683 4.89946 5.13388 5.13388C4.89946 5.3683 4.58152 5.5 4.25 5.5C3.91848 5.5 3.60054 5.3683 3.36612 5.13388C3.1317 4.89946 3 4.58152 3 4.25C3 3.91848 3.1317 3.60054 3.36612 3.36612C3.60054 3.1317 3.91848 3 4.25 3Z" fill="#E16428"/>
</svg>
