<svg width="208" height="208" viewBox="0 0 208 208" fill="none" xmlns="http://www.w3.org/2000/svg">
<path d="M104 0C83.4308 0 63.3235 6.09949 46.2207 17.5272C29.118 28.9548 15.7881 45.1974 7.91658 64.2009C0.0450616 83.2044 -2.01449 104.115 1.99838 124.289C6.01124 144.463 15.9163 162.994 30.4609 177.539C45.0056 192.084 63.5366 201.989 83.7107 206.002C103.885 210.015 124.796 207.955 143.799 200.083C162.803 192.212 179.045 178.882 190.473 161.779C201.901 144.677 208 124.569 208 104C207.947 76.4337 196.973 50.0116 177.481 30.5193C157.988 11.0269 131.566 0.0528597 104 0V0ZM116 152H112V160C112 162.122 111.157 164.157 109.657 165.657C108.157 167.157 106.122 168 104 168C101.878 168 99.8435 167.157 98.3432 165.657C96.8429 164.157 96 162.122 96 160V152H80C77.8783 152 75.8435 151.157 74.3432 149.657C72.8429 148.157 72 146.122 72 144C72 141.878 72.8429 139.843 74.3432 138.343C75.8435 136.843 77.8783 136 80 136H116C119.183 136 122.235 134.736 124.485 132.485C126.736 130.235 128 127.183 128 124C128 120.817 126.736 117.765 124.485 115.515C122.235 113.264 119.183 112 116 112H92C84.574 112 77.4521 109.05 72.2011 103.799C66.95 98.548 64 91.4261 64 84C64 76.5739 66.95 69.452 72.2011 64.201C77.4521 58.95 84.574 56 92 56H96V48C96 45.8783 96.8429 43.8434 98.3432 42.3431C99.8435 40.8429 101.878 40 104 40C106.122 40 108.157 40.8429 109.657 42.3431C111.157 43.8434 112 45.8783 112 48V56H128C130.122 56 132.157 56.8429 133.657 58.3431C135.157 59.8434 136 61.8783 136 64C136 66.1217 135.157 68.1566 133.657 69.6569C132.157 71.1571 130.122 72 128 72H92C88.8174 72 85.7652 73.2643 83.5148 75.5147C81.2643 77.7652 80 80.8174 80 84C80 87.1826 81.2643 90.2348 83.5148 92.4853C85.7652 94.7357 88.8174 96 92 96H116C123.426 96 130.548 98.95 135.799 104.201C141.05 109.452 144 116.574 144 124C144 131.426 141.05 138.548 135.799 143.799C130.548 149.05 123.426 152 116 152V152Z" fill="#E16428"/>
</svg>
