<svg width="14" height="14" viewBox="0 0 14 14" fill="none" xmlns="http://www.w3.org/2000/svg">
<path d="M7.035 11.9L9.03 9.9225L7.035 7.945L6.3 8.68L7.0525 9.4325C6.72583 9.44417 6.40803 9.39167 6.0991 9.275C5.7897 9.15833 5.5125 8.9775 5.2675 8.7325C5.03417 8.49917 4.85613 8.23083 4.7334 7.9275C4.61113 7.62417 4.55 7.32083 4.55 7.0175C4.55 6.81917 4.57637 6.62083 4.6291 6.4225C4.68137 6.22417 4.75417 6.03167 4.8475 5.845L4.0775 5.075C3.87917 5.36667 3.73333 5.67583 3.64 6.0025C3.54667 6.32917 3.5 6.66167 3.5 7C3.5 7.44333 3.5875 7.88083 3.7625 8.3125C3.9375 8.74417 4.19417 9.12917 4.5325 9.4675C4.87083 9.80583 5.25 10.0597 5.67 10.2291C6.09 10.398 6.52167 10.4883 6.965 10.5L6.3 11.165L7.035 11.9ZM9.9225 8.925C10.1208 8.63333 10.2667 8.32417 10.36 7.9975C10.4533 7.67083 10.5 7.33833 10.5 7C10.5 6.55667 10.4155 6.11613 10.2466 5.6784C10.0772 5.24113 9.82333 4.85333 9.485 4.515C9.14667 4.17667 8.7647 3.92583 8.3391 3.7625C7.91303 3.59917 7.47833 3.5175 7.035 3.5175L7.7 2.835L6.965 2.1L4.97 4.0775L6.965 6.055L7.7 5.32L6.93 4.55C7.245 4.55 7.56583 4.61113 7.8925 4.7334C8.21917 4.85613 8.49917 5.03417 8.7325 5.2675C8.96583 5.50083 9.14387 5.76917 9.2666 6.0725C9.38887 6.37583 9.45 6.67917 9.45 6.9825C9.45 7.18083 9.42363 7.37917 9.3709 7.5775C9.31863 7.77583 9.24583 7.96833 9.1525 8.155L9.9225 8.925ZM7 14C6.03167 14 5.12167 13.8161 4.27 13.4484C3.41833 13.0811 2.6775 12.5825 2.0475 11.9525C1.4175 11.3225 0.918867 10.5817 0.5516 9.73C0.183867 8.87833 0 7.96833 0 7C0 6.03167 0.183867 5.12167 0.5516 4.27C0.918867 3.41833 1.4175 2.6775 2.0475 2.0475C2.6775 1.4175 3.41833 0.918633 4.27 0.5509C5.12167 0.183633 6.03167 0 7 0C7.96833 0 8.87833 0.183633 9.73 0.5509C10.5817 0.918633 11.3225 1.4175 11.9525 2.0475C12.5825 2.6775 13.0811 3.41833 13.4484 4.27C13.8161 5.12167 14 6.03167 14 7C14 7.96833 13.8161 8.87833 13.4484 9.73C13.0811 10.5817 12.5825 11.3225 11.9525 11.9525C11.3225 12.5825 10.5817 13.0811 9.73 13.4484C8.87833 13.8161 7.96833 14 7 14Z" fill="#E16428"/>
</svg>
