<svg width="800" height="828" viewBox="0 0 800 828" fill="none" xmlns="http://www.w3.org/2000/svg">
<path d="M48 796C48 813.7 62.3 828 80 828H366V452H48V796ZM434 828H720C737.7 828 752 813.7 752 796V452H434V828ZM768 212H620.4C634 190.6 642 165.2 642 138C642 61.9 580.1 0 504 0C462.6 0 425.3 18.4 400 47.4C374.7 18.4 337.4 0 296 0C219.9 0 158 61.9 158 138C158 165.2 165.9 190.6 179.6 212H32C14.3 212 0 226.3 0 244V384H366V212H434V384H800V244C800 226.3 785.7 212 768 212ZM366 208H296C257.4 208 226 176.6 226 138C226 99.4 257.4 68 296 68C334.6 68 366 99.4 366 138V208ZM504 208H434V138C434 99.4 465.4 68 504 68C542.6 68 574 99.4 574 138C574 176.6 542.6 208 504 208Z" fill="#E16428"/>
</svg>
