<svg width="227" height="49" viewBox="0 0 227 49" fill="none" xmlns="http://www.w3.org/2000/svg">
<g clip-path="url(#clip0_25_34)">
<path d="M74.728 12.1202C75.2984 12.8988 75.5903 13.8486 75.5563 14.8152C75.5563 16.3162 74.9757 17.4718 73.8145 18.2819C72.6534 19.092 70.9604 19.5004 68.7356 19.5069H59.9247V2.3569H68.2557C70.3327 2.3569 71.9283 2.75707 73.0423 3.5574C73.5711 3.91497 74.0014 4.40122 74.2931 4.97093C74.5848 5.54065 74.7286 6.17531 74.711 6.8159C74.7272 7.596 74.523 8.36471 74.1219 9.03263C73.7209 9.70055 73.1396 10.2402 72.4455 10.5889C73.3463 10.8479 74.1443 11.3832 74.728 12.1202ZM63.8393 5.3214V9.3639H67.7612C68.7356 9.3639 69.4745 9.1924 69.9779 8.8494C70.2241 8.68394 70.4231 8.45686 70.5555 8.19052C70.688 7.92417 70.7491 7.62774 70.733 7.3304C70.7499 7.03466 70.689 6.73967 70.5564 6.47515C70.4239 6.21063 70.2243 5.98592 69.9779 5.82365C69.4728 5.48719 68.7339 5.31977 67.7612 5.3214H63.8393ZM70.7939 15.9789C71.0547 15.8081 71.2654 15.5705 71.4046 15.2907C71.5437 15.0108 71.6062 14.6986 71.5856 14.3864C71.5856 12.9654 70.5382 12.2549 68.4432 12.2549H63.8393V16.4934H68.4506C69.4834 16.4934 70.2653 16.3219 70.7939 15.9789Z" fill="black"/>
<path d="M88.2476 7.56315C89.3373 8.54315 89.8813 10.0131 89.8797 11.9731V19.4946H86.3232V17.8531C85.6102 19.0781 84.2786 19.6906 82.3282 19.6906C81.4285 19.7123 80.5349 19.5368 79.7095 19.1761C79.0165 18.8783 78.4242 18.3847 78.0044 17.7551C77.6123 17.142 77.4089 16.4261 77.4197 15.6971C77.3977 15.139 77.5116 14.5838 77.7515 14.08C77.9913 13.5762 78.3499 13.1389 78.796 12.8061C79.7152 12.1038 81.1321 11.7526 83.0468 11.7526H86.0674C86.0674 10.9196 85.8157 10.2786 85.3122 9.8294C84.8088 9.38023 84.0602 9.15156 83.0663 9.1434C82.3671 9.14352 81.6723 9.25516 81.0079 9.47415C80.3913 9.66811 79.8139 9.97091 79.3027 10.3684L77.9386 7.6979C78.721 7.15913 79.5906 6.76121 80.5085 6.5219C81.5123 6.244 82.5489 6.1039 83.59 6.1054C85.6054 6.1054 87.1579 6.59131 88.2476 7.56315ZM85.0151 16.66C85.5191 16.3576 85.8992 15.8841 86.0869 15.3247V13.965H83.4804C81.9214 13.965 81.1419 14.4795 81.1419 15.5085C81.1346 15.7349 81.183 15.9596 81.2829 16.1626C81.3827 16.3657 81.531 16.5407 81.7143 16.6722C82.1782 16.9821 82.7295 17.1326 83.2855 17.101C83.8913 17.1156 84.4894 16.9631 85.0151 16.66Z" fill="black"/>
<path d="M105.214 7.5754C106.213 8.5554 106.712 10.0091 106.712 11.9364V19.4824H102.912V12.5244C102.912 11.4791 102.685 10.6992 102.23 10.1846C101.775 9.67015 101.118 9.4129 100.257 9.4129C99.8343 9.39279 99.4122 9.46197 99.0178 9.616C98.6234 9.77002 98.2655 10.0055 97.9671 10.3071C97.3987 10.9033 97.1145 11.7894 97.1145 12.9654V19.4824H93.3144V6.3014H96.9513V7.84C97.4707 7.27284 98.1123 6.83284 98.827 6.55375C99.6105 6.24512 100.446 6.09124 101.287 6.1005C102.908 6.10377 104.217 6.5954 105.214 7.5754Z" fill="black"/>
<path d="M112.863 18.8086C111.776 18.2606 110.866 17.4138 110.239 16.3665C109.612 15.3191 109.293 14.1143 109.319 12.8919C109.293 11.6695 109.612 10.4647 110.239 9.41734C110.866 8.37002 111.776 7.52318 112.863 6.97515C114.029 6.38253 115.32 6.08404 116.627 6.1054C117.887 6.07534 119.133 6.37504 120.244 6.97515C121.25 7.52772 122.043 8.40316 122.497 9.4619L119.55 11.0544C118.868 9.84573 117.885 9.2414 116.602 9.2414C116.147 9.22711 115.694 9.3067 115.271 9.47525C114.848 9.64379 114.464 9.89773 114.142 10.2214C113.492 10.8747 113.168 11.7649 113.168 12.8919C113.168 14.0189 113.492 14.9091 114.142 15.5624C114.464 15.8861 114.848 16.14 115.271 16.3085C115.694 16.4771 116.147 16.5567 116.602 16.5424C117.901 16.5424 118.884 15.9381 119.55 14.7294L122.497 16.3464C122.031 17.3875 121.24 18.2475 120.244 18.7964C119.136 19.404 117.888 19.7081 116.627 19.6784C115.32 19.6998 114.029 19.4013 112.863 18.8086Z" fill="black"/>
<path d="M127.04 18.8086C125.98 18.2589 125.093 17.4234 124.478 16.3954C123.853 15.3361 123.532 14.1234 123.552 12.8919C123.532 11.6604 123.853 10.4477 124.478 9.3884C125.095 8.35942 125.985 7.52375 127.048 6.97515C128.201 6.40294 129.47 6.10532 130.756 6.10532C132.043 6.10532 133.312 6.40294 134.465 6.97515C135.523 7.52623 136.409 8.3616 137.023 9.3884C137.648 10.4477 137.968 11.6604 137.949 12.8919C137.968 14.1234 137.648 15.3361 137.023 16.3954C136.409 17.4222 135.523 18.2576 134.465 18.8086C133.312 19.3809 132.043 19.6785 130.756 19.6785C129.47 19.6785 128.201 19.3809 127.048 18.8086H127.04ZM133.155 15.5501C133.781 14.8968 134.094 14.0107 134.092 12.8919C134.091 11.7731 133.778 10.887 133.155 10.2337C132.847 9.90725 132.474 9.65008 132.061 9.47906C131.647 9.30803 131.202 9.22704 130.755 9.2414C130.306 9.22762 129.86 9.30883 129.444 9.47977C129.029 9.6507 128.654 9.90755 128.344 10.2337C127.71 10.887 127.393 11.7731 127.393 12.8919C127.393 14.0107 127.71 14.8968 128.344 15.5501C128.655 15.874 129.031 16.1286 129.446 16.2974C129.861 16.4662 130.307 16.5455 130.755 16.5302C131.201 16.5461 131.645 16.467 132.059 16.2981C132.472 16.1292 132.846 15.8743 133.155 15.5501Z" fill="black"/>
<path d="M78.9422 46.4324L78.913 34.0844L72.8913 44.2568H70.7574L64.7649 34.349V46.4324H60.3217V25.8524H64.2387L71.8974 38.6414L79.4489 25.8524H83.3464L83.4049 46.4324H78.9422Z" fill="#E16428"/>
<path d="M90.9418 45.6239C89.6662 44.9656 88.5983 43.9628 87.8579 42.728C87.13 41.4478 86.7471 39.9986 86.7471 38.5238C86.7471 37.049 87.13 35.5998 87.8579 34.3196C88.5983 33.0848 89.6662 32.082 90.9418 31.4237C92.3261 30.7371 93.8488 30.3801 95.3923 30.3801C96.9357 30.3801 98.4585 30.7371 99.8428 31.4237C101.112 32.0853 102.175 33.0877 102.912 34.3196C103.64 35.5998 104.023 37.049 104.023 38.5238C104.023 39.9986 103.64 41.4478 102.912 42.728C102.175 43.9599 101.112 44.9623 99.8428 45.6239C98.4585 46.3104 96.9357 46.6675 95.3923 46.6675C93.8488 46.6675 92.3261 46.3104 90.9418 45.6239ZM98.2789 41.7039C99.0292 40.9101 99.4043 39.8484 99.4043 38.5189C99.4043 37.1894 99.0292 36.1277 98.2789 35.3339C97.9099 34.9421 97.4624 34.6334 96.9661 34.4282C96.4698 34.2229 95.9359 34.1258 95.3996 34.1432C94.8612 34.1268 94.3254 34.2243 93.8269 34.4295C93.3284 34.6346 92.8783 34.9427 92.5057 35.3339C91.7456 36.1277 91.3656 37.1894 91.3656 38.5189C91.3656 39.8484 91.7456 40.9101 92.5057 41.7039C92.8783 42.0951 93.3284 42.4032 93.8269 42.6083C94.3254 42.8135 94.8612 42.911 95.3996 42.8946C95.9352 42.9132 96.4687 42.8177 96.9649 42.6141C97.4612 42.4106 97.909 42.1037 98.2789 41.7137V41.7039Z" fill="#E16428"/>
<path d="M121.343 32.144C122.541 33.32 123.14 35.0644 123.14 37.3772V46.4422H118.58V38.0828C118.58 36.8284 118.307 35.8925 117.762 35.2751C117.216 34.6577 116.427 34.349 115.394 34.349C114.244 34.349 113.328 34.7067 112.646 35.4221C111.964 36.1375 111.623 37.1992 111.623 38.6071V46.4275H107.063V30.625H111.418V32.4772C112.042 31.7973 112.812 31.2694 113.669 30.9337C114.609 30.5595 115.611 30.3715 116.622 30.38C118.57 30.38 120.144 30.968 121.343 32.144Z" fill="#E16428"/>
<path d="M137.405 45.668C136.909 46.0236 136.347 46.2782 135.754 46.4177C135.08 46.5852 134.387 46.6675 133.693 46.6627C131.822 46.6627 130.375 46.1825 129.352 45.2221C128.329 44.2617 127.817 42.8505 127.817 40.9885V34.496H125.381V30.968H127.817V27.1166H132.377V30.968H136.295V34.496H132.377V40.9346C132.341 41.4965 132.525 42.0504 132.889 42.4781C133.079 42.6659 133.306 42.8113 133.555 42.9051C133.804 42.9988 134.07 43.0386 134.336 43.022C134.998 43.0416 135.648 42.8343 136.178 42.434L137.405 45.668Z" fill="#E16428"/>
<path d="M141.439 46.1825C140.386 45.9388 139.379 45.5251 138.458 44.9575L139.978 41.6647C140.768 42.1543 141.624 42.5257 142.521 42.7672C143.471 43.045 144.455 43.1885 145.444 43.1935C147.373 43.1935 148.338 42.7133 148.338 41.7529C148.338 41.3021 148.075 40.9754 147.549 40.7729C146.756 40.523 145.94 40.3588 145.113 40.2829C144.036 40.1322 142.972 39.9062 141.926 39.6067C141.095 39.356 140.344 38.8896 139.749 38.2543C139.135 37.601 138.828 36.6798 138.828 35.4907C138.817 34.5311 139.124 33.5952 139.7 32.83C140.351 32 141.223 31.373 142.214 31.0219C143.462 30.5657 144.784 30.3464 146.111 30.3751C147.227 30.3757 148.34 30.4989 149.429 30.7426C150.388 30.9338 151.31 31.2761 152.162 31.7569L150.647 35.035C149.265 34.2513 147.703 33.8459 146.116 33.859C145.142 33.859 144.411 33.9962 143.924 34.2706C143.437 34.545 143.193 34.8978 143.193 35.329C143.193 35.819 143.456 36.162 143.982 36.358C144.801 36.6216 145.643 36.8086 146.496 36.9166C147.565 37.0827 148.622 37.3134 149.663 37.6075C150.481 37.8522 151.218 38.3143 151.797 38.9452C152.401 39.5985 152.703 40.4969 152.703 41.6402C152.715 42.5873 152.406 43.5103 151.826 44.2568C151.158 45.0806 150.271 45.6972 149.268 46.0355C147.986 46.4835 146.635 46.6976 145.278 46.6676C143.983 46.6702 142.693 46.5072 141.439 46.1825Z" fill="#E16428"/>
<path d="M170.817 39.8174H158.92C159.109 40.7599 159.654 41.592 160.44 42.14C161.32 42.7325 162.363 43.0308 163.421 42.9926C164.164 43.0058 164.902 42.8812 165.599 42.6251C166.26 42.3619 166.862 41.9669 167.368 41.4638L169.787 44.1C168.305 45.8052 166.142 46.6578 163.297 46.6578C161.668 46.6905 160.055 46.3327 158.591 45.6141C157.281 44.9735 156.182 43.9684 155.424 42.7182C154.674 41.4473 154.289 39.9918 154.313 38.514C154.293 37.0432 154.672 35.5947 155.409 34.3245C156.127 33.0932 157.169 32.0858 158.42 31.4139C159.727 30.7357 161.176 30.3781 162.646 30.3704C164.117 30.3628 165.569 30.7052 166.883 31.3698C168.115 32.0219 169.135 33.017 169.821 34.2363C170.552 35.5611 170.92 37.0577 170.888 38.5728C170.899 38.6381 170.875 39.053 170.817 39.8174ZM160.147 34.7312C159.433 35.3436 158.973 36.2043 158.861 37.142H166.62C166.501 36.2107 166.042 35.3569 165.334 34.7459C164.614 34.1414 163.699 33.8225 162.761 33.8492C161.813 33.8158 160.884 34.1291 160.147 34.7312Z" fill="#E16428"/>
<path d="M180.505 30.968C181.522 30.5587 182.61 30.3588 183.706 30.38V34.6136C183.196 34.5679 182.86 34.545 182.697 34.545C181.398 34.545 180.375 34.9125 179.628 35.6475C178.881 36.3825 178.507 37.485 178.505 38.955V46.4226H173.945V30.625H178.312V32.7124C178.866 31.9359 179.626 31.3314 180.505 30.968Z" fill="#E16428"/>
<path d="M192.989 30.968C194.006 30.5587 195.095 30.3588 196.19 30.38V34.6136C195.683 34.5744 195.342 34.5548 195.167 34.5548C193.868 34.5548 192.845 34.9223 192.098 35.6573C191.351 36.3923 190.978 37.4915 190.979 38.955V46.4226H186.427V30.625H190.782V32.7124C191.34 31.9337 192.105 31.3291 192.989 30.968Z" fill="#E16428"/>
<path d="M210.777 32.1293C212.076 33.2955 212.725 35.0546 212.725 37.4066V46.4324H208.467V44.4724C207.61 45.9424 206.012 46.6774 203.673 46.6774C202.594 46.7034 201.521 46.4928 200.531 46.06C199.704 45.697 198.998 45.1015 198.499 44.345C198.029 43.6091 197.786 42.7499 197.8 41.8754C197.8 40.4054 198.351 39.249 199.452 38.4062C200.553 37.5634 202.253 37.142 204.553 37.142H208.177C208.177 36.1424 207.875 35.3731 207.271 34.8341C206.667 34.2951 205.761 34.0256 204.553 34.0256C203.714 34.0258 202.88 34.1598 202.083 34.4225C201.337 34.6537 200.64 35.0171 200.022 35.4956L198.385 32.291C199.323 31.6423 200.365 31.1615 201.466 30.87C202.671 30.5393 203.915 30.3745 205.164 30.38C207.6 30.38 209.471 30.9631 210.777 32.1293ZM206.879 43.0367C207.484 42.6735 207.94 42.1054 208.165 41.4344V39.8174H205.047C203.176 39.8174 202.241 40.4348 202.241 41.6696C202.232 41.9413 202.29 42.211 202.41 42.4546C202.53 42.6983 202.708 42.9083 202.928 43.0661C203.485 43.4379 204.146 43.6184 204.813 43.5806C205.542 43.5942 206.26 43.406 206.889 43.0367H206.879Z" fill="#E16428"/>
<path d="M227 45.668C226.503 46.0236 225.942 46.2782 225.348 46.4177C224.674 46.5852 223.982 46.6675 223.288 46.6627C221.417 46.6627 219.97 46.1825 218.947 45.2221C217.924 44.2617 217.412 42.8505 217.412 40.9885V34.496H214.976V30.968H217.412V27.1166H221.972V30.968H225.889V34.496H221.972V40.9346C221.936 41.4965 222.12 42.0504 222.484 42.4781C222.673 42.6659 222.9 42.8113 223.15 42.9051C223.399 42.9988 223.665 43.0386 223.931 43.022C224.593 43.0416 225.242 42.8343 225.772 42.434L227 45.668Z" fill="#E16428"/>
<path d="M18.1235 31.1469L0.343445 49H47.2503L29.8356 31.5119L24.1623 37.2106L18.1235 31.1469Z" fill="#E16428"/>
<path d="M0 0V36.9191L24.1477 12.6714L48.5365 37.1616H48.7192V0H0Z" fill="#E16428"/>
</g>
<defs>
<clipPath id="clip0_25_34">
<rect width="227" height="49" fill="white"/>
</clipPath>
</defs>
</svg>
