<svg width="34" height="32" viewBox="0 0 34 32" fill="none" xmlns="http://www.w3.org/2000/svg">
<path d="M23.6667 15.3333C24.1389 15.3333 24.5345 15.1733 24.8534 14.8533C25.1734 14.5344 25.3334 14.1389 25.3334 13.6667C25.3334 13.1944 25.1734 12.7983 24.8534 12.4783C24.5345 12.1594 24.1389 12 23.6667 12C23.1945 12 22.7989 12.1594 22.48 12.4783C22.16 12.7983 22 13.1944 22 13.6667C22 14.1389 22.16 14.5344 22.48 14.8533C22.7989 15.1733 23.1945 15.3333 23.6667 15.3333ZM12 12H17C17.4723 12 17.8684 11.84 18.1884 11.52C18.5073 11.2011 18.6667 10.8056 18.6667 10.3333C18.6667 9.86111 18.5073 9.465 18.1884 9.14499C17.8684 8.82611 17.4723 8.66666 17 8.66666H12C11.5278 8.66666 11.1323 8.82611 10.8134 9.14499C10.4934 9.465 10.3334 9.86111 10.3334 10.3333C10.3334 10.8056 10.4934 11.2011 10.8134 11.52C11.1323 11.84 11.5278 12 12 12ZM6.87504 32C6.23615 32 5.61782 31.7778 5.02004 31.3333C4.42337 30.8889 4.02782 30.3472 3.83337 29.7083C3.13893 27.375 2.56949 25.3539 2.12504 23.645C1.6806 21.9372 1.32671 20.4372 1.06337 19.145C0.79893 17.8539 0.611152 16.7083 0.500041 15.7083C0.388929 14.7083 0.333374 13.75 0.333374 12.8333C0.333374 10.2778 1.22226 8.11111 3.00004 6.33333C4.77782 4.55555 6.94449 3.66666 9.50004 3.66666H17.8334C18.5834 2.66666 19.535 1.86111 20.6884 1.24999C21.8406 0.638884 23.1112 0.333328 24.5 0.333328C25.1945 0.333328 25.7845 0.576662 26.27 1.06333C26.7567 1.54888 27 2.13888 27 2.83333C27 2.99999 26.9789 3.16666 26.9367 3.33333C26.8956 3.49999 26.8473 3.65277 26.7917 3.79166C26.6806 4.09722 26.5767 4.40277 26.48 4.70833C26.3823 5.01388 26.3056 5.34722 26.25 5.70833L30.0417 9.49999H32C32.4723 9.49999 32.8678 9.65944 33.1867 9.97833C33.5067 10.2983 33.6667 10.6944 33.6667 11.1667V19.9167C33.6667 20.2778 33.5623 20.5972 33.3534 20.875C33.1456 21.1528 32.8611 21.3611 32.5 21.5L28.9584 22.6667L26.875 29.625C26.6528 30.3472 26.25 30.9239 25.6667 31.355C25.0834 31.785 24.4167 32 23.6667 32H20.3334C19.4167 32 18.6323 31.6739 17.98 31.0217C17.3267 30.3683 17 29.5833 17 28.6667H13.6667C13.6667 29.5833 13.3406 30.3683 12.6884 31.0217C12.035 31.6739 11.25 32 10.3334 32H6.87504Z" fill="#E16428"/>
</svg>
